<?xml version="1.0" encoding="UTF-8" standalone="no"?>
<!-- Created with Inkscape (http://www.inkscape.org/) -->

<svg
   width="164mm"
   height="96.470589mm"
   viewBox="0 0 164 96.470588"
   version="1.1"
   id="svg1"
   xmlns="http://www.w3.org/2000/svg"
   xmlns:svg="http://www.w3.org/2000/svg">
  <defs
     id="defs1" />
  <g
     id="layer1">
    <path
       style="font-weight:bold;font-size:53.6468px;font-family:Comfortaa;-inkscape-font-specification:'Comfortaa Bold';fill:#ffffff;stroke:#ffffff;stroke-width:0.542805;stroke-linecap:round;stroke-linejoin:round"
       d="m 21.003591,59.10012 c 4.881859,0 9.280896,-1.555757 13.143466,-4.667272 0.590115,-0.590114 0.858349,-1.233876 0.858349,-1.984931 0,-2.306813 -2.253166,-3.379749 -4.130804,-1.984932 -3.004221,2.253166 -6.223029,3.540689 -9.871011,3.540689 -8.476195,0 -15.3429852,-7.242318 -15.3429852,-16.415921 0,-9.06631 6.8667902,-16.415921 15.3429852,-16.415921 4.667272,0 7.027731,1.233876 9.710071,3.540689 1.877638,1.50211 4.452684,0.32188 4.452684,-1.770345 0,-0.911995 -0.214587,-1.50211 -1.072936,-2.199519 -4.02351,-3.272455 -7.617845,-4.613625 -13.089819,-4.613625 -11.6950027,0 -20.70766527,9.495484 -20.70766527,21.458721 0,12.124177 9.06630937,21.512367 20.70766527,21.512367 z m 33.529225,-0.321881 c 8.637134,0 14.75287,-6.169382 14.75287,-14.860164 -0.05365,-8.744428 -6.169382,-14.91381 -14.75287,-14.91381 -8.690782,0 -14.806518,6.169382 -14.806518,14.91381 0,8.690782 6.115736,14.860164 14.806518,14.860164 z m 0,-4.828212 c -5.579268,0 -9.549131,-4.130804 -9.549131,-10.031952 0,-5.901148 3.969863,-10.085598 9.549131,-10.085598 5.579267,0 9.495483,4.18445 9.495483,10.085598 0,5.901148 -3.916216,10.031952 -9.495483,10.031952 z m 26.233242,4.613625 h 9.710071 c 12.231471,0 20.761311,-8.690782 20.761311,-20.975899 0,-12.231471 -8.52984,-20.922253 -20.761311,-20.922253 h -9.710071 c -1.609404,0 -2.789633,1.18023 -2.789633,2.789634 v 36.318884 c 0,1.609404 1.180229,2.789634 2.789633,2.789634 z m 2.789634,-4.935506 v -32.02714 h 6.920437 c 9.012663,0 15.396631,6.598557 15.396631,15.986747 0,9.38819 -6.383968,16.040393 -15.396631,16.040393 z M 122.71791,24.444287 c 1.93129,0 3.54069,-1.609404 3.54069,-3.540689 0,-1.931285 -1.6094,-3.540689 -3.54069,-3.540689 -1.93128,0 -3.54069,1.609404 -3.54069,3.540689 0,1.931285 1.60941,3.540689 3.54069,3.540689 z m 0,34.119365 c 1.60941,0 2.73599,-1.126583 2.73599,-2.735987 V 31.954839 c 0,-1.609404 -1.12658,-2.735987 -2.73599,-2.735987 -1.6094,0 -2.73598,1.126583 -2.73598,2.735987 v 23.872826 c 0,1.609404 1.12658,2.735987 2.73598,2.735987 z m 25.16036,0.214587 c 4.2381,0 7.88608,-1.877638 10.35383,-4.881859 v 1.984932 c 0,1.555757 1.18023,2.735987 2.73599,2.735987 1.55575,0 2.73598,-1.18023 2.73598,-2.735987 V 43.918075 c -0.0536,-8.476194 -6.38397,-14.91381 -14.75287,-14.91381 -8.42254,0 -14.80651,6.437616 -14.80651,14.91381 0,8.476195 5.90114,14.860164 13.73358,14.860164 z m 1.07293,-4.828212 c -5.41832,0 -9.54913,-4.291744 -9.54913,-10.031952 0,-5.740207 4.13081,-10.085598 9.54913,-10.085598 5.41833,0 9.49549,4.345391 9.49549,10.085598 0,5.740208 -4.07716,10.031952 -9.49549,10.031952 z"
       id="text1"
       aria-label="CoDia" />
    <path
       style="fill:#a1c6ea;fill-opacity:1;stroke:#a1c6ea;stroke-width:2.02657;stroke-linecap:round;stroke-linejoin:round;stroke-dasharray:none;stroke-opacity:1"
       d="M 1.0717733,68.8995 H 162.92823"
       id="path1" />
    <path
       d="m 4.6252761,76.088987 q -0.7239,0 -1.3081,0.254 -0.5842,0.2413 -0.9906,0.7239 -0.4063999,0.4699 -0.6222999,1.1557 -0.2159,0.6731 -0.2159,1.524 0,1.1176 0.3429,1.9431 0.3556,0.8255 1.0413999,1.27 0.6985,0.4445 1.7399,0.4445 0.5969,0 1.1303,-0.1016 0.5334,-0.1016 1.0414,-0.254 v 0.9906 q -0.508,0.1905 -1.0541,0.2794 -0.5334,0.0889 -1.2827,0.0889 -1.3843,0 -2.3113999,-0.5715 -0.9271,-0.5715 -1.39700003,-1.6256 -0.45719999,-1.0541 -0.45719999,-2.4765 0,-1.0287 0.27939999,-1.8796 0.2921,-0.8509 0.83820003,-1.4732 0.5588,-0.6223 1.3715999,-0.9525 0.8128,-0.3429 1.8669,-0.3429 0.6985,0 1.3462,0.1397 0.6477,0.1397 1.1557,0.3937 l -0.4572,0.9652 q -0.4191,-0.1905 -0.9398,-0.3429 -0.508,-0.1524 -1.1176,-0.1524 z m 9.9059999,4.7752 q 0,0.8509 -0.2286,1.5113 -0.2159,0.6477 -0.635,1.1049 -0.4064,0.4572 -1.0033,0.6985 -0.5842,0.2286 -1.3081,0.2286 -0.6731,0 -1.2446,-0.2286 -0.5715002,-0.2413 -0.9906002,-0.6985 -0.4191,-0.4572 -0.6604,-1.1049 -0.2286,-0.6604 -0.2286,-1.5113 0,-1.1303 0.381,-1.905 0.381,-0.7874 1.0922,-1.1938 0.7112002,-0.4191 1.6891002,-0.4191 0.9271,0 1.6256,0.4191 0.7112,0.4064 1.1049,1.1938 0.4064,0.7747 0.4064,1.905 z m -5.1435002,0 q 0,0.8001 0.2032,1.397 0.2159,0.5842 0.6604002,0.9017 0.4445,0.3175 1.1303,0.3175 0.6858,0 1.1303,-0.3175 0.4445,-0.3175 0.6477,-0.9017 0.2159,-0.5969 0.2159,-1.397 0,-0.8128 -0.2159,-1.3843 -0.2159,-0.5715 -0.6604,-0.8763 -0.4318,-0.3175 -1.1303,-0.3175 -1.0414,0 -1.5113002,0.6858 -0.4699,0.6858 -0.4699,1.8923 z m 14.3763942,-3.5179 q 1.1557,0 1.7272,0.5969 0.5715,0.5842 0.5715,1.905 v 4.4323 h -1.1049 v -4.3815 q 0,-0.8001 -0.3429,-1.2065 -0.3302,-0.4064 -1.0414,-0.4064 -0.9906,0 -1.4224,0.5715 -0.4191,0.5715 -0.4191,1.6637 v 3.7592 h -1.1049 v -4.3815 q 0,-0.5334 -0.1524,-0.889 -0.1524,-0.3683 -0.4572,-0.5461 -0.3048,-0.1778 -0.7874,-0.1778 -0.6858,0 -1.0795,0.2921 -0.3937,0.2794 -0.5715,0.8255 -0.1651,0.5461 -0.1651,1.3462 v 3.5306 h -1.1176 v -6.8072 h 0.9017 l 0.1651,0.9271 h 0.0635 q 0.2159,-0.3556 0.5207,-0.5842 0.3175,-0.2413 0.6985,-0.3556 0.381,-0.1143 0.7874,-0.1143 0.7874,0 1.3081,0.2794 0.5334,0.2794 0.7747,0.8636 h 0.0635 q 0.3429,-0.5842 0.9271,-0.8636 0.5969,-0.2794 1.2573,-0.2794 z m 7.645393,0 q 1.2573,0 2.0193,0.8763 0.7747,0.8763 0.7747,2.6416 0,1.1557 -0.3556,1.9558 -0.3429,0.7874 -0.9779,1.1938 -0.6223,0.3937 -1.4732,0.3937 -0.5207,0 -0.9271,-0.1397 -0.4064,-0.1397 -0.6985,-0.3556 -0.2794,-0.2286 -0.4826,-0.4953 h -0.0762 q 0.0254,0.2159 0.0508,0.5461 0.0254,0.3302 0.0254,0.5715 v 2.794 h -1.1176 v -9.8552 h 0.9144 l 0.1524,0.9271 h 0.0508 q 0.2032,-0.2921 0.4826,-0.5334 0.2921,-0.2413 0.6858,-0.381 0.4064,-0.1397 0.9525,-0.1397 z m -0.2032,0.9398 q -0.6858,0 -1.1049,0.2667 -0.4191,0.254 -0.6096,0.7747 -0.1905,0.5207 -0.2032,1.3208 v 0.2159 q 0,0.8382 0.1778,1.4224 0.1778,0.5842 0.5969,0.889 0.4318,0.3048 1.1684,0.3048 0.6223,0 1.016,-0.3429 0.4064,-0.3429 0.5969,-0.9271 0.2032,-0.5969 0.2032,-1.3589 0,-1.1684 -0.4572,-1.8669 -0.4445,-0.6985 -1.3843,-0.6985 z m 10.464795,-0.8128 v 6.8072 h -0.9144 l -0.1651,-0.9017 h -0.0508 q -0.2159,0.3556 -0.5588,0.5842 -0.3429,0.2286 -0.7493,0.3302 -0.4064,0.1143 -0.8509,0.1143 -0.8128,0 -1.3716,-0.254 -0.5461,-0.2667 -0.8255,-0.8128 -0.2794,-0.5461 -0.2794,-1.4097 v -4.4577 h 1.1303 v 4.3815 q 0,0.8128 0.3683,1.2192 0.3683,0.4064 1.143,0.4064 0.762,0 1.1938,-0.2794 0.4445,-0.2921 0.6223,-0.8382 0.1905,-0.5588 0.1905,-1.3462 v -3.5433 z m 4.432303,6.0198 q 0.254,0 0.5207,-0.0381 0.2667,-0.0508 0.4318,-0.1016 v 0.8509 q -0.1778,0.0889 -0.508,0.1397 -0.3302,0.0635 -0.635,0.0635 -0.5334,0 -0.9906,-0.1778 -0.4445,-0.1905 -0.7239,-0.6477 -0.2794,-0.4572 -0.2794,-1.2827 v -3.9624 h -0.9652 v -0.5334 l 0.9779,-0.4445 0.4445,-1.4478 h 0.6604 v 1.5621 h 1.9685 v 0.8636 h -1.9685 v 3.937 q 0,0.6223 0.2921,0.9271 0.3048,0.2921 0.7747,0.2921 z m 4.889501,-6.1341 q 1.2446,0 1.8415,0.5461 0.5969,0.5461 0.5969,1.7399 v 4.6355 h -0.8128 l -0.2159,-0.9652 h -0.0508 q -0.2921,0.3683 -0.6096,0.6223 -0.3048,0.2413 -0.7112,0.3556 -0.3937,0.1143 -0.9652,0.1143 -0.6096,0 -1.1049,-0.2159 -0.4826,-0.2159 -0.762,-0.6604 -0.2794,-0.4572 -0.2794,-1.143 0,-1.016 0.8001,-1.5621 0.8001,-0.5588 2.4638,-0.6096 l 1.1557,-0.0381 v -0.4064 q 0,-0.8509 -0.3683,-1.1811 -0.3683,-0.3302 -1.0414,-0.3302 -0.5334,0 -1.016,0.1651 -0.4826,0.1524 -0.9017,0.3556 l -0.3429,-0.8382 q 0.4445,-0.2413 1.0541,-0.4064 0.6096,-0.1778 1.27,-0.1778 z m 0.3302,3.6322 q -1.27,0.0508 -1.7653,0.4064 -0.4826,0.3556 -0.4826,1.0033 0,0.5715 0.3429,0.8382 0.3556,0.2667 0.9017,0.2667 0.8636,0 1.4351,-0.4699 0.5715,-0.4826 0.5715,-1.4732 v -0.6096 z m 6.48971,2.5019 q 0.254,0 0.5207,-0.0381 0.2667,-0.0508 0.4318,-0.1016 v 0.8509 q -0.1778,0.0889 -0.508,0.1397 -0.3302,0.0635 -0.635,0.0635 -0.5334,0 -0.9906,-0.1778 -0.4445,-0.1905 -0.7239,-0.6477 -0.2794,-0.4572 -0.2794,-1.2827 v -3.9624 h -0.9652 v -0.5334 l 0.9779,-0.4445 0.4445,-1.4478 h 0.6604 v 1.5621 h 1.9685 v 0.8636 h -1.9685 v 3.937 q 0,0.6223 0.2921,0.9271 0.3048,0.2921 0.7747,0.2921 z m 3.428998,-6.0198 v 6.8072 h -1.1176 v -6.8072 z m -0.5461,-2.5527 q 0.254,0 0.4445,0.1778 0.2032,0.1651 0.2032,0.5334 0,0.3556 -0.2032,0.5334 -0.1905,0.1778 -0.4445,0.1778 -0.2794,0 -0.4699,-0.1778 -0.1905,-0.1778 -0.1905,-0.5334 0,-0.3683 0.1905,-0.5334 0.1905,-0.1778 0.4699,-0.1778 z m 8.623292,5.9436 q 0,0.8509 -0.2286,1.5113 -0.2159,0.6477 -0.635,1.1049 -0.4064,0.4572 -1.0033,0.6985 -0.5842,0.2286 -1.3081,0.2286 -0.6731,0 -1.2446,-0.2286 -0.5715,-0.2413 -0.9906,-0.6985 -0.4191,-0.4572 -0.6604,-1.1049 -0.2286,-0.6604 -0.2286,-1.5113 0,-1.1303 0.381,-1.905 0.381,-0.7874 1.0922,-1.1938 0.7112,-0.4191 1.6891,-0.4191 0.9271,0 1.6256,0.4191 0.7112,0.4064 1.1049,1.1938 0.4064,0.7747 0.4064,1.905 z m -5.1435,0 q 0,0.8001 0.2032,1.397 0.2159,0.5842 0.6604,0.9017 0.4445,0.3175 1.1303,0.3175 0.6858,0 1.1303,-0.3175 0.4445,-0.3175 0.6477,-0.9017 0.2159,-0.5969 0.2159,-1.397 0,-0.8128 -0.2159,-1.3843 -0.2159,-0.5715 -0.6604,-0.8763 -0.4318,-0.3175 -1.1303,-0.3175 -1.0414,0 -1.5113,0.6858 -0.4699,0.6858 -0.4699,1.8923 z m 10.185395,-3.5179 q 1.2192,0 1.8415,0.5969 0.6223,0.5842 0.6223,1.905 v 4.4323 h -1.1049 v -4.3561 q 0,-0.8255 -0.3683,-1.2319 -0.3683,-0.4064 -1.1557,-0.4064 -1.1303,0 -1.5621,0.635 -0.4318,0.635 -0.4318,1.8288 v 3.5306 h -1.1176 v -6.8072 h 0.9017 l 0.1651,0.9271 h 0.0635 q 0.2286,-0.3556 0.5588,-0.5842 0.3429,-0.2413 0.7493,-0.3556 0.4064,-0.1143 0.8382,-0.1143 z m 7.150102,0.0127 q 1.2446,0 1.8415,0.5461 0.5969,0.5461 0.5969,1.7399 v 4.6355 h -0.8128 l -0.2159,-0.9652 h -0.0508 q -0.2921,0.3683 -0.6096,0.6223 -0.3048,0.2413 -0.7112,0.3556 -0.3937,0.1143 -0.9652,0.1143 -0.6096,0 -1.1049,-0.2159 -0.4826,-0.2159 -0.762,-0.6604 -0.2794,-0.4572 -0.2794,-1.143 0,-1.016 0.8001,-1.5621 0.8001,-0.5588 2.4638,-0.6096 l 1.1557,-0.0381 v -0.4064 q 0,-0.8509 -0.3683,-1.1811 -0.3683,-0.3302 -1.0414,-0.3302 -0.5334,0 -1.016,0.1651 -0.4826,0.1524 -0.9017,0.3556 l -0.3429,-0.8382 q 0.4445,-0.2413 1.0541,-0.4064 0.6096,-0.1778 1.27,-0.1778 z m 0.3302,3.6322 q -1.27,0.0508 -1.7653,0.4064 -0.4826,0.3556 -0.4826,1.0033 0,0.5715 0.3429,0.8382 0.3556,0.2667 0.9017,0.2667 0.8636,0 1.4351,-0.4699 0.5715,-0.4826 0.5715,-1.4732 v -0.6096 z m 5.33401,3.2893 h -1.1176 v -9.652 h 1.1176 z m 12.877801,-4.6228 q 0,1.524 -0.571503,2.5527 -0.5588,1.0287 -1.6129,1.5494 -1.0541,0.5207 -2.5527,0.5207 h -2.5273 v -9.0678 h 2.794 q 1.3716,0 2.3749,0.508 1.0033,0.508 1.5494,1.4986 0.546103,0.9779 0.546103,2.4384 z m -1.206503,0.0381 q 0,-1.2065 -0.4064,-1.9812 -0.3937,-0.7747 -1.1684,-1.143 -0.762,-0.381 -1.8542,-0.381 h -1.4859 v 7.112 h 1.2319 q 1.8415,0 2.7559,-0.9017 0.9271,-0.9144 0.9271,-2.7051 z m 4.178293,-2.2225 v 6.8072 h -1.1176 v -6.8072 z m -0.5461,-2.5527 q 0.254,0 0.4445,0.1778 0.2032,0.1651 0.2032,0.5334 0,0.3556 -0.2032,0.5334 -0.1905,0.1778 -0.4445,0.1778 -0.2794,0 -0.4699,-0.1778 -0.1905,-0.1778 -0.1905,-0.5334 0,-0.3683 0.1905,-0.5334 0.1905,-0.1778 0.4699,-0.1778 z m 5.28319,2.4384 q 1.2446,0 1.8415,0.5461 0.5969,0.5461 0.5969,1.7399 v 4.6355 h -0.8128 l -0.2159,-0.9652 h -0.0508 q -0.2921,0.3683 -0.6096,0.6223 -0.3048,0.2413 -0.7112,0.3556 -0.3937,0.1143 -0.9652,0.1143 -0.6096,0 -1.1049,-0.2159 -0.4826,-0.2159 -0.762,-0.6604 -0.2794,-0.4572 -0.2794,-1.143 0,-1.016 0.8001,-1.5621 0.8001,-0.5588 2.4638,-0.6096 l 1.1557,-0.0381 v -0.4064 q 0,-0.8509 -0.3683,-1.1811 -0.3683,-0.3302 -1.0414,-0.3302 -0.5334,0 -1.016,0.1651 -0.4826,0.1524 -0.9017,0.3556 l -0.3429,-0.8382 q 0.4445,-0.2413 1.0541,-0.4064 0.6096,-0.1778 1.27,-0.1778 z m 0.3302,3.6322 q -1.27,0.0508 -1.7653,0.4064 -0.4826,0.3556 -0.4826,1.0033 0,0.5715 0.3429,0.8382 0.3556,0.2667 0.9017,0.2667 0.8636,0 1.4351,-0.4699 0.5715,-0.4826 0.5715,-1.4732 v -0.6096 z m 5.33401,-4.0132 q 0,0.4318 -0.0254,0.8128 -0.0127,0.3683 -0.0381,0.5842 h 0.0635 q 0.2921,-0.4318 0.8001,-0.7239 0.508,-0.2921 1.3081,-0.2921 1.27,0 2.032,0.889 0.7747,0.8763 0.7747,2.6289 0,1.1684 -0.3556,1.9558 -0.3429,0.7874 -0.9779,1.1811 -0.635,0.3937 -1.4732,0.3937 -0.8001,0 -1.3081,-0.2921 -0.508,-0.2921 -0.8001,-0.6985 h -0.0889 l -0.2286,0.8636 h -0.8001 v -9.652 h 1.1176 z m 1.9177,1.3081 q -0.7239,0 -1.143,0.2794 -0.4191,0.2667 -0.5969,0.8382 -0.1778,0.5588 -0.1778,1.4351 v 0.0508 q 0,1.2573 0.4064,1.9304 0.4191,0.6604 1.5367,0.6604 0.9144,0 1.3589,-0.6731 0.4572,-0.6731 0.4572,-1.9431 0,-1.2827 -0.4572,-1.9304 -0.4445,-0.6477 -1.3843,-0.6477 z m 7.4041,-0.9398 q 0.8763,0 1.4986,0.381 0.635,0.381 0.9652,1.0795 0.3429,0.6858 0.3429,1.6129 v 0.6731 h -4.6609 q 0.0254,1.1557 0.5842,1.7653 0.5715,0.5969 1.5875,0.5969 0.6477,0 1.143,-0.1143 0.508,-0.127 1.0414,-0.3556 v 0.9779 q -0.5207,0.2286 -1.0287,0.3302 -0.508,0.1143 -1.2065,0.1143 -0.9652,0 -1.7145,-0.3937 -0.7366,-0.3937 -1.1557,-1.1684 -0.4064,-0.7874 -0.4064,-1.9177 0,-1.1176 0.3683,-1.9177 0.381,-0.8001 1.0541,-1.2319 0.6858,-0.4318 1.5875,-0.4318 z m -0.0127,0.9144 q -0.8001,0 -1.27,0.5207 -0.4572,0.508 -0.5461,1.4224 h 3.4671 q 0,-0.5842 -0.1778,-1.016 -0.1778,-0.4318 -0.5461,-0.6731 -0.3556,-0.254 -0.9271,-0.254 z m 6.81989,5.2324 q 0.254,0 0.5207,-0.0381 0.2667,-0.0508 0.4318,-0.1016 v 0.8509 q -0.1778,0.0889 -0.508,0.1397 -0.3302,0.0635 -0.635,0.0635 -0.5334,0 -0.9906,-0.1778 -0.4445,-0.1905 -0.7239,-0.6477 -0.2794,-0.4572 -0.2794,-1.2827 v -3.9624 h -0.9652 v -0.5334 l 0.9779,-0.4445 0.4445,-1.4478 h 0.6604 v 1.5621 h 1.9685 v 0.8636 h -1.9685 v 3.937 q 0,0.6223 0.2921,0.9271 0.3048,0.2921 0.7747,0.2921 z m 8.2296,-2.6289 q 0,0.8509 -0.2286,1.5113 -0.2159,0.6477 -0.635,1.1049 -0.4064,0.4572 -1.0033,0.6985 -0.5842,0.2286 -1.3081,0.2286 -0.6731,0 -1.2446,-0.2286 -0.5715,-0.2413 -0.9906,-0.6985 -0.4191,-0.4572 -0.6604,-1.1049 -0.2286,-0.6604 -0.2286,-1.5113 0,-1.1303 0.381,-1.905 0.381,-0.7874 1.0922,-1.1938 0.7112,-0.4191 1.6891,-0.4191 0.9271,0 1.6256,0.4191 0.7112,0.4064 1.1049,1.1938 0.4064,0.7747 0.4064,1.905 z m -5.1435,0 q 0,0.8001 0.2032,1.397 0.2159,0.5842 0.6604,0.9017 0.4445,0.3175 1.1303,0.3175 0.6858,0 1.1303,-0.3175 0.4445,-0.3175 0.6477,-0.9017 0.2159,-0.5969 0.2159,-1.397 0,-0.8128 -0.2159,-1.3843 -0.2159,-0.5715 -0.6604,-0.8763 -0.4318,-0.3175 -1.1303,-0.3175 -1.0414,0 -1.5113,0.6858 -0.4699,0.6858 -0.4699,1.8923 z m 8.02639,3.4163 h -1.1176 v -9.652 h 1.1176 z m 8.0772,-3.4163 q 0,0.8509 -0.2286,1.5113 -0.2159,0.6477 -0.635,1.1049 -0.4064,0.4572 -1.0033,0.6985 -0.5842,0.2286 -1.3081,0.2286 -0.6731,0 -1.2446,-0.2286 -0.5715,-0.2413 -0.9906,-0.6985 -0.4191,-0.4572 -0.6604,-1.1049 -0.2286,-0.6604 -0.2286,-1.5113 0,-1.1303 0.381,-1.905 0.381,-0.7874 1.0922,-1.1938 0.7112,-0.4191 1.6891,-0.4191 0.9271,0 1.6256,0.4191 0.7112,0.4064 1.1049,1.1938 0.4064,0.7747 0.4064,1.905 z m -5.1435,0 q 0,0.8001 0.2032,1.397 0.2159,0.5842 0.6604,0.9017 0.4445,0.3175 1.1303,0.3175 0.6858,0 1.1303,-0.3175 0.4445,-0.3175 0.6477,-0.9017 0.2159,-0.5969 0.2159,-1.397 0,-0.8128 -0.2159,-1.3843 -0.2159,-0.5715 -0.6604,-0.8763 -0.4318,-0.3175 -1.1303,-0.3175 -1.0414,0 -1.5113,0.6858 -0.4699,0.6858 -0.4699,1.8923 z m 9.32178,-3.5179 q 0.6731,0 1.2065,0.254 0.5461,0.254 0.9271,0.7747 h 0.0635 l 0.1524,-0.9017 h 0.889 v 6.9215 q 0,0.9652 -0.3302,1.6129 -0.3302,0.6604 -1.0033,0.9906 -0.6731,0.3302 -1.7145,0.3302 -0.7366,0 -1.3589,-0.1143 -0.6096,-0.1016 -1.0922,-0.3175 v -1.0287 q 0.4826,0.254 1.1303,0.3937 0.6477,0.1397 1.3843,0.1397 0.8763,0 1.3716,-0.5207 0.508,-0.508 0.508,-1.397 v -0.2667 q 0,-0.1524 0.0127,-0.4318 0.0127,-0.2921 0.0254,-0.4064 h -0.0508 q -0.3556,0.5207 -0.889,0.7747 -0.5207,0.254 -1.2192,0.254 -1.3208,0 -2.0701,-0.9271 -0.7366,-0.9271 -0.7366,-2.5908 0,-1.6256 0.7366,-2.5781 0.7493,-0.9652 2.0574,-0.9652 z m 0.1524,0.9398 q -0.5715,0 -0.9779,0.3048 -0.3937,0.3048 -0.6096,0.889 -0.2032,0.5842 -0.2032,1.4224 0,1.2573 0.4572,1.9304 0.4699,0.6604 1.3589,0.6604 0.5207,0 0.889,-0.127 0.3683,-0.1397 0.6096,-0.4191 0.2413,-0.2921 0.3556,-0.7366 0.1143,-0.4445 0.1143,-1.0541 v -0.2667 q 0,-0.9271 -0.2159,-1.4986 -0.2032,-0.5715 -0.6477,-0.8382 -0.4445,-0.2667 -1.1303,-0.2667 z m 4.1783,-0.8128 h 1.1938 l 1.4732,3.8735 q 0.127,0.3429 0.2286,0.6604 0.1143,0.3175 0.2032,0.6223 0.0889,0.2921 0.1397,0.5715 h 0.0508 q 0.0762,-0.3175 0.2413,-0.8255 0.1651,-0.5207 0.3429,-1.0414 l 1.3843,-3.8608 h 1.2065 l -2.9337,7.747 q -0.2413,0.635 -0.5715,1.1049 -0.3175,0.4826 -0.7874,0.7366 -0.4572,0.2667 -1.1176,0.2667 -0.3048,0 -0.5334,-0.0381 -0.2286,-0.0254 -0.3937,-0.0635 v -0.889 q 0.1397,0.0254 0.3302,0.0508 0.2032,0.0254 0.4191,0.0254 0.3937,0 0.6731,-0.1524 0.2921,-0.1397 0.4953,-0.4191 0.2032,-0.2667 0.3429,-0.635 l 0.3556,-0.9017 z"
       id="text2"
       style="font-size:12.7px;font-family:'Noto Sans';-inkscape-font-specification:'Noto Sans';fill:#ffffff;stroke:#ffffff;stroke-width:0.514;stroke-linecap:round;stroke-linejoin:round"
       aria-label="Computational Diabetology" />
  </g>
</svg>
